<?xml version="1.0" encoding="UTF-8"?>
<svg xmlns="http://www.w3.org/2000/svg" width="444" height="444" viewBox="0 0 444 444">
  <path d="M377.4,44.4 h22.2v22.2h-22.2z M310.8,66.6 h22.2v22.2h-22.2z M333,66.6 h22.2v22.2h-22.2z M355.2,66.6 h22.2v22.2h-22.2z M377.4,66.6 h22.2v22.2h-22.2z M399.6,66.6 h22.2v22.2h-22.2z M88.8,88.8 h22.2v22.2h-22.2z M111,88.8 h22.2v22.2h-22.2z M133.2,88.8 h22.2v22.2h-22.2z M155.4,88.8 h22.2v22.2h-22.2z M177.6,88.8 h22.2v22.2h-22.2z M199.8,88.8 h22.2v22.2h-22.2z M222,88.8 h22.2v22.2h-22.2z M244.2,88.8 h22.2v22.2h-22.2z M266.4,88.8 h22.2v22.2h-22.2z M288.6,88.8 h22.2v22.2h-22.2z M310.8,88.8 h22.2v22.2h-22.2z M333,88.8 h22.2v22.2h-22.2z M355.2,88.8 h22.2v22.2h-22.2z M111,111 h22.2v22.2h-22.2z M133.2,111 h22.2v22.2h-22.2z M155.4,111 h22.2v22.2h-22.2z M177.6,111 h22.2v22.2h-22.2z M199.8,111 h22.2v22.2h-22.2z M222,111 h22.2v22.2h-22.2z M244.2,111 h22.2v22.2h-22.2z M266.4,111 h22.2v22.2h-22.2z M288.6,111 h22.2v22.2h-22.2z M222,133.2 h22.2v22.2h-22.2z M288.6,133.2 h22.2v22.2h-22.2z M355.2,133.2 h22.2v22.2h-22.2z M133.2,155.4 h22.2v22.2h-22.2z M155.4,155.4 h22.2v22.2h-22.2z M177.6,155.4 h22.2v22.2h-22.2z M199.8,155.4 h22.2v22.2h-22.2z M222,155.4 h22.2v22.2h-22.2z M244.2,155.4 h22.2v22.2h-22.2z M266.4,155.4 h22.2v22.2h-22.2z M288.6,155.4 h22.2v22.2h-22.2z M310.8,155.4 h22.2v22.2h-22.2z M155.4,177.6 h22.2v22.2h-22.2z M288.6,177.6 h22.2v22.2h-22.2z M155.4,199.8 h22.2v22.2h-22.2z M244.2,199.8 h22.2v22.2h-22.2z M288.6,199.8 h22.2v22.2h-22.2z M155.4,222 h22.2v22.2h-22.2z M244.2,222 h22.2v22.2h-22.2z M288.6,222 h22.2v22.2h-22.2z M355.2,222 h22.2v22.2h-22.2z M155.4,244.2 h22.2v22.2h-22.2z M244.2,244.2 h22.2v22.2h-22.2z M288.6,244.2 h22.2v22.2h-22.2z M310.8,244.2 h22.2v22.2h-22.2z M355.2,244.2 h22.2v22.2h-22.2z M0,266.4 h22.2v22.2h-22.2z M44.4,266.4 h22.2v22.2h-22.2z M155.4,266.4 h22.2v22.2h-22.2z M244.2,266.4 h22.2v22.2h-22.2z M288.6,266.4 h22.2v22.2h-22.2z M310.8,266.4 h22.2v22.2h-22.2z M355.2,266.4 h22.2v22.2h-22.2z M155.4,288.6 h22.2v22.2h-22.2z M244.2,288.6 h22.2v22.2h-22.2z M288.6,288.6 h22.2v22.2h-22.2z M310.8,288.6 h22.2v22.2h-22.2z M355.2,288.6 h22.2v22.2h-22.2z M155.4,310.8 h22.2v22.2h-22.2z M244.2,310.8 h22.2v22.2h-22.2z M288.6,310.8 h22.2v22.2h-22.2z M310.8,310.8 h22.2v22.2h-22.2z M355.2,310.8 h22.2v22.2h-22.2z M155.4,333 h22.2v22.2h-22.2z M244.2,333 h22.2v22.2h-22.2z M288.6,333 h22.2v22.2h-22.2z M310.8,333 h22.2v22.2h-22.2z M355.2,333 h22.2v22.2h-22.2z M155.4,355.2 h22.2v22.2h-22.2z M244.2,355.2 h22.2v22.2h-22.2z M288.6,355.2 h22.2v22.2h-22.2z M310.8,355.2 h22.2v22.2h-22.2z M355.2,355.2 h22.2v22.2h-22.2z M244.2,377.4 h22.2v22.2h-22.2z M288.6,377.4 h22.2v22.2h-22.2z M310.8,377.4 h22.2v22.2h-22.2z" fill="#000000"/>
</svg>